<svg xmlns="http://www.w3.org/2000/svg" viewBox="0 0 512 512" width="512" height="512"><defs><radialGradient id="g" cx="50%" cy="45%" r="60%"><stop offset="0" stop-color="#2a0f3d"/><stop offset="1" stop-color="#030106"/></radialGradient><radialGradient id="c"><stop offset="0" stop-color="#fff" stop-opacity=".9"/><stop offset=".35" stop-color="#ff3399" stop-opacity=".55"/><stop offset="1" stop-color="#ff007f" stop-opacity="0"/></radialGradient></defs><rect width="512" height="512" fill="url(#g)"/><circle cx="256" cy="256" r="82.5" fill="url(#c)"/><circle cx="265.3" cy="392.7" r="5.9" fill="#ff3399" opacity="0.79"/><circle cx="244.1" cy="387.7" r="6.0" fill="#ff3399" opacity="0.81"/><circle cx="257.8" cy="400.1" r="5.5" fill="#ff3399" opacity="0.74"/><circle cx="270.9" cy="383.2" r="6.2" fill="#ff3399" opacity="0.83"/><circle cx="228.6" cy="392.6" r="5.8" fill="#ff3399" opacity="0.77"/><circle cx="281.9" cy="396.8" r="5.6" fill="#ff3399" opacity="0.75"/><circle cx="247.3" cy="376.4" r="6.3" fill="#ff3399" opacity="0.85"/><circle cx="239.5" cy="402.0" r="5.3" fill="#ff3399" opacity="0.71"/><circle cx="291.7" cy="383.2" r="6.0" fill="#ff3399" opacity="0.81"/><circle cx="218.9" cy="381.7" r="6.1" fill="#ff3399" opacity="0.82"/><circle cx="273.9" cy="403.0" r="5.2" fill="#ff3399" opacity="0.70"/><circle cx="269.2" cy="369.7" r="6.5" fill="#ff3399" opacity="0.87"/><circle cx="216.2" cy="395.8" r="5.4" fill="#ff3399" opacity="0.73"/><circle cx="302.6" cy="390.0" r="5.6" fill="#ff3399" opacity="0.76"/><circle cx="227.6" cy="368.8" r="6.4" fill="#ff3399" opacity="0.87"/><circle cx="249.4" cy="405.4" r="5.0" fill="#ff3399" opacity="0.67"/><circle cx="296.2" cy="370.5" r="6.3" fill="#ff3399" opacity="0.85"/><circle cx="201.9" cy="382.8" r="5.8" fill="#ff3399" opacity="0.78"/><circle cx="295.4" cy="399.2" r="5.2" fill="#ff3399" opacity="0.69"/><circle cx="253.4" cy="359.5" r="6.7" fill="#ff3399" opacity="0.90"/><circle cx="218.6" cy="400.4" r="5.1" fill="#ff3399" opacity="0.68"/><circle cx="315.2" cy="378.4" r="5.9" fill="#ff3399" opacity="0.79"/><circle cx="205.9" cy="366.9" r="6.3" fill="#ff3399" opacity="0.85"/><circle cx="269.7" cy="405.4" r="4.8" fill="#ff3399" opacity="0.64"/><circle cx="287.6" cy="357.6" r="6.6" fill="#ff3399" opacity="0.89"/><circle cx="194.3" cy="387.6" r="5.4" fill="#ff3399" opacity="0.73"/><circle cx="315.9" cy="390.3" r="5.3" fill="#ff3399" opacity="0.71"/><circle cx="230.1" cy="353.2" r="6.7" fill="#ff3399" opacity="0.91"/><circle cx="232.9" cy="404.1" r="4.7" fill="#7a6bff" opacity="0.63"/><circle cx="317.4" cy="364.3" r="6.3" fill="#ff3399" opacity="0.84"/><circle cx="187.8" cy="369.6" r="6.0" fill="#ff3399" opacity="0.81"/><circle cx="294.7" cy="400.9" r="4.8" fill="#7a6bff" opacity="0.64"/><circle cx="268.3" cy="346.7" r="6.9" fill="#ff3399" opacity="0.93"/><circle cx="197.8" cy="393.7" r="5.0" fill="#ff3399" opacity="0.67"/><circle cx="330.4" cy="377.3" r="5.6" fill="#ff3399" opacity="0.75"/><circle cx="204.6" cy="351.6" r="6.6" fill="#ff3399" opacity="0.89"/><circle cx="256.4" cy="405.0" r="4.5" fill="#7a6bff" opacity="0.60"/><circle cx="308.1" cy="349.8" r="6.6" fill="#ff3399" opacity="0.89"/><circle cx="177.8" cy="375.6" r="5.6" fill="#ff3399" opacity="0.75"/><circle cx="319.3" cy="391.7" r="4.9" fill="#ff3399" opacity="0.66"/><circle cx="241.6" cy="339.4" r="6.9" fill="#ff3399" opacity="0.94"/><circle cx="212.7" cy="399.2" r="4.6" fill="#7a6bff" opacity="0.61"/><circle cx="335.3" cy="361.7" r="6.0" fill="#ff3399" opacity="0.81"/><circle cx="182.1" cy="354.6" r="6.3" fill="#ff3399" opacity="0.85"/><circle cx="285.2" cy="401.6" r="4.4" fill="#7a6bff" opacity="0.59"/><circle cx="288.0" cy="337.0" r="6.9" fill="#ff3399" opacity="0.93"/><circle cx="178.6" cy="383.4" r="5.1" fill="#ff3399" opacity="0.68"/><circle cx="338.6" cy="378.3" r="5.3" fill="#ff3399" opacity="0.70"/><circle cx="211.9" cy="336.7" r="6.9" fill="#ff3399" opacity="0.92"/><circle cx="237.5" cy="402.0" r="4.3" fill="#7a6bff" opacity="0.57"/><circle cx="328.4" cy="345.4" r="6.5" fill="#ff3399" opacity="0.87"/><circle cx="167.1" cy="361.3" r="5.8" fill="#ff3399" opacity="0.78"/><circle cx="314.6" cy="393.4" r="4.6" fill="#7a6bff" opacity="0.61"/><circle cx="259.3" cy="327.6" r="7.1" fill="#ff3399" opacity="0.96"/><circle cx="191.5" cy="390.9" r="4.6" fill="#7a6bff" opacity="0.61"/><circle cx="348.5" cy="361.8" r="5.7" fill="#ff3399" opacity="0.77"/><circle cx="184.0" cy="339.0" r="6.6" fill="#ff3399" opacity="0.89"/><circle cx="269.0" cy="400.7" r="4.2" fill="#7a6bff" opacity="0.55"/><circle cx="309.8" cy="330.3" r="6.9" fill="#ff3399" opacity="0.92"/><circle cx="162.9" cy="370.4" r="5.3" fill="#ff3399" opacity="0.71"/><circle cx="339.7" cy="380.4" r="4.9" fill="#ff3399" opacity="0.65"/><circle cx="226.1" cy="323.0" r="7.1" fill="#ff3399" opacity="0.95"/><circle cx="215.5" cy="396.2" r="4.2" fill="#7a6bff" opacity="0.56"/><circle cx="346.4" cy="343.9" r="6.2" fill="#ff3399" opacity="0.84"/><circle cx="162.8" cy="345.5" r="6.1" fill="#ff3399" opacity="0.82"/><circle cx="302.7" cy="394.3" r="4.2" fill="#7a6bff" opacity="0.56"/><circle cx="281.1" cy="318.4" r="7.1" fill="#ff3399" opacity="0.96"/><circle cx="171.5" cy="379.8" r="4.7" fill="#7a6bff" opacity="0.63"/><circle cx="356.1" cy="363.7" r="5.3" fill="#ff3399" opacity="0.71"/><circle cx="193.1" cy="323.6" r="6.8" fill="#ff3399" opacity="0.92"/><circle cx="248.0" cy="397.6" r="4.0" fill="#7a6bff" opacity="0.52"/><circle cx="331.5" cy="326.5" r="6.7" fill="#ff3399" opacity="0.90"/><circle cx="152.1" cy="355.2" r="5.5" fill="#ff3399" opacity="0.74"/><circle cx="333.7" cy="382.7" r="4.5" fill="#7a6bff" opacity="0.59"/><circle cx="245.8" cy="311.1" r="7.2" fill="#ff3399" opacity="0.97"/><circle cx="192.5" cy="387.6" r="4.2" fill="#7a6bff" opacity="0.56"/><circle cx="360.5" cy="344.7" r="5.9" fill="#ff3399" opacity="0.79"/><circle cx="165.3" cy="329.1" r="6.4" fill="#ff3399" opacity="0.87"/><circle cx="284.9" cy="393.8" r="3.9" fill="#7a6bff" opacity="0.52"/><circle cx="304.8" cy="311.8" r="7.1" fill="#ff3399" opacity="0.95"/><circle cx="154.4" cy="366.1" r="4.9" fill="#ff3399" opacity="0.66"/><circle cx="357.2" cy="366.6" r="4.9" fill="#ff3399" opacity="0.65"/><circle cx="208.6" cy="309.2" r="7.1" fill="#ff3399" opacity="0.96"/><circle cx="224.1" cy="392.0" r="3.9" fill="#7a6bff" opacity="0.51"/><circle cx="351.2" cy="325.4" r="6.4" fill="#ff3399" opacity="0.86"/><circle cx="147.2" cy="338.6" r="5.9" fill="#ff3399" opacity="0.79"/><circle cx="321.1" cy="384.4" r="4.1" fill="#7a6bff" opacity="0.54"/><circle cx="269.3" cy="301.4" r="7.3" fill="#ff3399" opacity="0.98"/><circle cx="170.5" cy="376.3" r="4.3" fill="#7a6bff" opacity="0.58"/><circle cx="369.2" cy="347.3" r="5.4" fill="#ff3399" opacity="0.73"/><circle cx="174.6" cy="312.9" r="6.7" fill="#ff3399" opacity="0.91"/><circle cx="262.4" cy="391.3" r="3.7" fill="#7a6bff" opacity="0.49"/><circle cx="328.6" cy="308.0" r="6.9" fill="#ff3399" opacity="0.93"/><circle cx="142.0" cy="350.4" r="5.2" fill="#ff3399" opacity="0.70"/><circle cx="351.6" cy="369.7" r="4.4" fill="#7a6bff" opacity="0.59"/><circle cx="229.4" cy="296.5" r="7.3" fill="#ff3399" opacity="0.98"/><circle cx="199.0" cy="383.6" r="3.9" fill="#7a6bff" opacity="0.51"/><circle cx="367.2" cy="326.6" r="6.0" fill="#ff3399" opacity="0.81"/><circle cx="148.8" cy="321.4" r="6.2" fill="#ff3399" opacity="0.84"/><circle cx="302.6" cy="384.8" r="3.7" fill="#7a6bff" opacity="0.49"/><circle cx="295.0" cy="294.4" r="7.2" fill="#ff3399" opacity="0.98"/><circle cx="151.3" cy="362.5" r="4.6" fill="#7a6bff" opacity="0.61"/><circle cx="371.7" cy="350.9" r="5.0" fill="#ff3399" opacity="0.66"/><circle cx="190.2" cy="297.6" r="7.0" fill="#ff3399" opacity="0.95"/><circle cx="236.8" cy="386.3" r="3.6" fill="#7a6bff" opacity="0.47"/><circle cx="350.7" cy="306.9" r="6.6" fill="#ff3399" opacity="0.89"/><circle cx="135.3" cy="333.3" r="5.6" fill="#ff3399" opacity="0.75"/><circle cx="339.4" cy="372.4" r="4.0" fill="#7a6bff" opacity="0.53"/><circle cx="254.2" cy="286.1" r="7.3" fill="#ff3399" opacity="0.99"/><circle cx="174.7" cy="372.5" r="4.0" fill="#7a6bff" opacity="0.52"/><circle cx="378.1" cy="329.7" r="5.6" fill="#ff3399" opacity="0.75"/><circle cx="157.2" cy="304.3" r="6.6" fill="#ff3399" opacity="0.88"/><circle cx="279.3" cy="383.2" r="3.5" fill="#7a6bff" opacity="0.46"/><circle cx="321.0" cy="290.1" r="7.1" fill="#ff3399" opacity="0.95"/><circle cx="136.4" cy="346.5" r="4.9" fill="#ff3399" opacity="0.65"/><circle cx="367.5" cy="354.9" r="4.5" fill="#7a6bff" opacity="0.60"/><circle cx="211.4" cy="283.9" r="7.2" fill="#ff3399" opacity="0.98"/><circle cx="209.8" cy="378.6" r="3.5" fill="#7a6bff" opacity="0.46"/><circle cx="369.2" cy="308.1" r="6.2" fill="#ff3399" opacity="0.84"/><circle cx="135.0" cy="315.3" r="5.9" fill="#ff3399" opacity="0.80"/><circle cx="321.1" cy="373.8" r="3.7" fill="#7a6bff" opacity="0.48"/><circle cx="281.4" cy="278.2" r="7.3" fill="#ff3399" opacity="0.99"/><circle cx="152.9" cy="358.9" r="4.2" fill="#7a6bff" opacity="0.55"/><circle cx="382.8" cy="333.8" r="5.1" fill="#ff3399" opacity="0.69"/><circle cx="172.1" cy="288.0" r="6.9" fill="#ff3399" opacity="0.93"/><circle cx="252.6" cy="379.2" r="3.3" fill="#7a6bff" opacity="0.43"/><circle cx="345.5" cy="288.6" r="6.8" fill="#ff3399" opacity="0.92"/><circle cx="127.2" cy="329.0" r="5.2" fill="#ff3399" opacity="0.70"/><circle cx="356.6" cy="358.5" r="4.0" fill="#7a6bff" opacity="0.54"/><circle cx="236.8" cy="272.4" r="7.4" fill="#ff3399" opacity="0.99"/><circle cx="183.3" cy="368.2" r="3.6" fill="#7a6bff" opacity="0.48"/><circle cx="382.8" cy="311.3" r="5.8" fill="#ff3399" opacity="0.78"/><circle cx="141.6" cy="297.3" r="6.3" fill="#ff3399" opacity="0.85"/><circle cx="297.6" cy="373.3" r="3.3" fill="#7a6bff" opacity="0.44"/><circle cx="309.4" cy="273.2" r="7.2" fill="#ff3399" opacity="0.97"/><circle cx="135.3" cy="343.0" r="4.5" fill="#7a6bff" opacity="0.60"/><circle cx="380.8" cy="338.5" r="4.6" fill="#7a6bff" opacity="0.62"/><circle cx="192.7" cy="273.1" r="7.1" fill="#ff3399" opacity="0.96"/><circle cx="224.1" cy="372.5" r="3.3" fill="#7a6bff" opacity="0.43"/><circle cx="366.7" cy="289.5" r="6.5" fill="#ff3399" opacity="0.87"/><circle cx="124.4" cy="310.5" r="5.6" fill="#ff3399" opacity="0.75"/><circle cx="339.3" cy="361.0" r="3.6" fill="#7a6bff" opacity="0.48"/><circle cx="265.1" cy="263.5" r="7.4" fill="#ff3399" opacity="1.00"/><circle cx="158.9" cy="355.1" r="3.8" fill="#7a6bff" opacity="0.50"/><circle cx="390.4" cy="315.8" r="5.3" fill="#ff3399" opacity="0.71"/><circle cx="154.9" cy="280.0" r="6.7" fill="#ff3399" opacity="0.90"/><circle cx="270.4" cy="370.5" r="3.1" fill="#7a6bff" opacity="0.41"/><circle cx="336.2" cy="270.9" r="7.0" fill="#ff3399" opacity="0.94"/><circle cx="123.0" cy="325.4" r="4.8" fill="#ff3399" opacity="0.65"/><circle cx="372.0" cy="343.0" r="4.1" fill="#7a6bff" opacity="0.55"/><circle cx="218.1" cy="260.4" r="7.3" fill="#ff3399" opacity="0.99"/><circle cx="195.5" cy="363.0" r="3.3" fill="#7a6bff" opacity="0.43"/><circle cx="383.4" cy="292.5" r="6.0" fill="#ff3399" opacity="0.81"/><circle cx="128.5" cy="291.8" r="6.0" fill="#ff3399" opacity="0.81"/><circle cx="316.5" cy="361.7" r="3.3" fill="#7a6bff" opacity="0.43"/><circle cx="294.5" cy="257.3" r="7.3" fill="#ff3399" opacity="0.99"/><circle cx="138.3" cy="339.6" r="4.1" fill="#7a6bff" opacity="0.54"/><circle cx="391.2" cy="321.0" r="4.8" fill="#7a6bff" opacity="0.64"/><circle cx="174.4" cy="264.0" r="7.0" fill="#ff3399" opacity="0.94"/><circle cx="240.9" cy="365.0" r="3.0" fill="#7a6bff" opacity="0.40"/><circle cx="360.2" cy="271.2" r="6.7" fill="#ff3399" opacity="0.90"/><circle cx="117.2" cy="306.7" r="5.2" fill="#ff3399" opacity="0.70"/><circle cx="356.5" cy="346.6" r="3.7" fill="#7a6bff" opacity="0.48"/><circle cx="246.9" cy="250.2" r="7.4" fill="#ff3399" opacity="1.00"/><circle cx="168.7" cy="350.7" r="3.5" fill="#7a6bff" opacity="0.46"/><circle cx="394.1" cy="297.1" r="5.5" fill="#ff3399" opacity="0.74"/><circle cx="139.6" cy="273.6" r="6.4" fill="#ff3399" opacity="0.86"/><circle cx="289.4" cy="360.2" r="3.0" fill="#7a6bff" opacity="0.39"/><circle cx="323.4" cy="254.0" r="7.1" fill="#ff3399" opacity="0.96"/><circle cx="122.9" cy="322.2" r="4.5" fill="#7a6bff" opacity="0.59"/><circle cx="385.0" cy="326.2" r="4.3" fill="#7a6bff" opacity="0.57"/><circle cx="199.0" cy="250.0" r="7.2" fill="#ff3399" opacity="0.97"/><circle cx="210.8" cy="356.7" r="3.0" fill="#7a6bff" opacity="0.40"/><circle cx="379.9" cy="273.7" r="6.2" fill="#ff3399" opacity="0.84"/><circle cx="118.3" cy="287.4" r="5.7" fill="#ff3399" opacity="0.76"/><circle cx="335.0" cy="348.5" r="3.3" fill="#7a6bff" opacity="0.43"/><circle cx="277.3" cy="242.7" r="7.4" fill="#ff3399" opacity="0.99"/><circle cx="145.3" cy="335.9" r="3.7" fill="#7a6bff" opacity="0.49"/><circle cx="398.2" cy="302.6" r="5.0" fill="#ff3399" opacity="0.67"/><circle cx="157.1" cy="256.5" r="6.8" fill="#ff3399" opacity="0.91"/><circle cx="259.5" cy="356.1" r="2.9" fill="#7a6bff" opacity="0.37"/><circle cx="350.0" cy="253.4" r="6.8" fill="#ff3399" opacity="0.92"/><circle cx="113.7" cy="303.3" r="4.9" fill="#ff3399" opacity="0.65"/><circle cx="371.9" cy="330.7" r="3.8" fill="#7a6bff" opacity="0.50"/><circle cx="227.6" cy="238.4" r="7.3" fill="#ff3399" opacity="0.99"/><circle cx="181.8" cy="345.4" r="3.2" fill="#7a6bff" opacity="0.41"/><circle cx="394.0" cy="278.1" r="5.7" fill="#ff3399" opacity="0.77"/><circle cx="126.6" cy="268.4" r="6.1" fill="#ff3399" opacity="0.82"/><circle cx="308.8" cy="348.4" r="3.0" fill="#7a6bff" opacity="0.39"/><circle cx="307.8" cy="238.2" r="7.2" fill="#ff3399" opacity="0.98"/><circle cx="126.6" cy="318.9" r="4.1" fill="#7a6bff" opacity="0.54"/><circle cx="395.1" cy="308.4" r="4.4" fill="#7a6bff" opacity="0.59"/><circle cx="180.3" cy="241.2" r="7.0" fill="#ff3399" opacity="0.95"/><circle cx="228.3" cy="349.1" r="2.8" fill="#7a6bff" opacity="0.37"/><circle cx="372.7" cy="255.3" r="6.4" fill="#ff3399" opacity="0.87"/><circle cx="111.5" cy="283.8" r="5.3" fill="#ff3399" opacity="0.71"/><circle cx="352.4" cy="333.9" r="3.3" fill="#7a6bff" opacity="0.44"/><circle cx="258.5" cy="229.6" r="7.4" fill="#ff3399" opacity="0.99"/><circle cx="155.7" cy="331.5" r="3.4" fill="#7a6bff" opacity="0.44"/><circle cx="401.5" cy="283.7" r="5.2" fill="#ff3399" opacity="0.70"/><circle cx="141.6" cy="250.3" r="6.5" fill="#ff3399" opacity="0.87"/><circle cx="279.0" cy="345.7" r="2.8" fill="#7a6bff" opacity="0.36"/><circle cx="336.6" cy="236.5" r="7.0" fill="#ff3399" opacity="0.94"/><circle cx="114.0" cy="300.3" r="4.5" fill="#7a6bff" opacity="0.59"/><circle cx="384.9" cy="313.7" r="3.9" fill="#7a6bff" opacity="0.52"/><circle cx="208.0" cy="228.2" r="7.2" fill="#ff3399" opacity="0.97"/><circle cx="197.7" cy="339.1" r="2.9" fill="#7a6bff" opacity="0.37"/><circle cx="390.1" cy="259.2" r="6.0" fill="#ff3399" opacity="0.80"/><circle cx="116.5" cy="264.2" r="5.7" fill="#ff3399" opacity="0.77"/><circle cx="327.6" cy="335.0" r="3.0" fill="#7a6bff" opacity="0.39"/><circle cx="290.1" cy="223.7" r="7.3" fill="#ff3399" opacity="0.98"/><circle cx="134.0" cy="315.3" r="3.7" fill="#7a6bff" opacity="0.49"/><circle cx="401.9" cy="289.8" r="4.7" fill="#7a6bff" opacity="0.62"/><circle cx="162.8" cy="233.8" r="6.8" fill="#ff3399" opacity="0.92"/><circle cx="247.4" cy="340.1" r="2.7" fill="#7a6bff" opacity="0.34"/><circle cx="362.0" cy="237.5" r="6.6" fill="#ff3399" opacity="0.89"/><circle cx="108.2" cy="280.7" r="4.9" fill="#ff3399" opacity="0.66"/><circle cx="368.0" cy="317.8" r="3.4" fill="#7a6bff" opacity="0.45"/><circle cx="238.8" cy="217.9" r="7.3" fill="#ff3399" opacity="0.99"/><circle cx="169.3" cy="326.3" r="3.1" fill="#7a6bff" opacity="0.40"/><circle cx="401.2" cy="264.5" r="5.4" fill="#ff3399" opacity="0.73"/><circle cx="128.6" cy="245.3" r="6.2" fill="#ff3399" opacity="0.83"/><circle cx="298.7" cy="333.7" r="2.7" fill="#7a6bff" opacity="0.35"/><circle cx="320.6" cy="220.7" r="7.1" fill="#ff3399" opacity="0.95"/><circle cx="118.0" cy="297.1" r="4.1" fill="#7a6bff" opacity="0.54"/><circle cx="395.0" cy="295.7" r="4.1" fill="#7a6bff" opacity="0.54"/><circle cx="189.0" cy="219.5" r="7.0" fill="#ff3399" opacity="0.95"/><circle cx="215.6" cy="331.5" r="2.7" fill="#7a6bff" opacity="0.34"/><circle cx="382.6" cy="240.6" r="6.2" fill="#ff3399" opacity="0.83"/><circle cx="109.6" cy="260.8" r="5.4" fill="#ff3399" opacity="0.72"/><circle cx="345.2" cy="320.2" r="3.0" fill="#7a6bff" opacity="0.40"/><circle cx="270.8" cy="210.5" r="7.3" fill="#ff3399" opacity="0.98"/><circle cx="144.8" cy="311.0" r="3.3" fill="#7a6bff" opacity="0.44"/><circle cx="405.2" cy="270.7" r="4.9" fill="#ff3399" opacity="0.65"/><circle cx="147.2" cy="227.8" r="6.5" fill="#ff3399" opacity="0.88"/><circle cx="267.3" cy="329.6" r="2.5" fill="#7a6bff" opacity="0.33"/><circle cx="348.3" cy="220.5" r="6.8" fill="#ff3399" opacity="0.91"/><circle cx="108.5" cy="277.7" r="4.5" fill="#7a6bff" opacity="0.60"/><circle cx="381.1" cy="300.7" r="3.6" fill="#7a6bff" opacity="0.47"/><circle cx="218.9" cy="207.7" r="7.2" fill="#ff3399" opacity="0.97"/><circle cx="185.5" cy="320.1" r="2.8" fill="#7a6bff" opacity="0.36"/><circle cx="397.2" cy="245.5" r="5.7" fill="#ff3399" opacity="0.76"/><circle cx="118.4" cy="241.3" r="5.8" fill="#ff3399" opacity="0.78"/><circle cx="317.8" cy="320.3" r="2.7" fill="#7a6bff" opacity="0.35"/><circle cx="302.5" cy="206.1" r="7.1" fill="#ff3399" opacity="0.96"/><circle cx="125.5" cy="293.6" r="3.7" fill="#7a6bff" opacity="0.49"/><circle cx="401.9" cy="276.9" r="4.3" fill="#7a6bff" opacity="0.57"/><circle cx="171.3" cy="212.2" r="6.8" fill="#ff3399" opacity="0.92"/><circle cx="234.9" cy="322.6" r="2.5" fill="#7a6bff" opacity="0.32"/><circle cx="371.8" cy="222.7" r="6.3" fill="#ff3399" opacity="0.85"/><circle cx="106.3" cy="257.7" r="5.0" fill="#ff3399" opacity="0.66"/><circle cx="361.0" cy="304.1" r="3.1" fill="#7a6bff" opacity="0.41"/><circle cx="250.9" cy="198.8" r="7.2" fill="#ff3399" opacity="0.97"/><circle cx="158.5" cy="305.9" r="3.0" fill="#7a6bff" opacity="0.39"/><circle cx="404.9" cy="251.5" r="5.1" fill="#ff3399" opacity="0.68"/><circle cx="133.9" cy="222.8" r="6.2" fill="#ff3399" opacity="0.83"/><circle cx="287.1" cy="317.7" r="2.5" fill="#7a6bff" opacity="0.32"/><circle cx="332.1" cy="204.6" r="6.9" fill="#ff3399" opacity="0.92"/><circle cx="112.6" cy="274.7" r="4.1" fill="#7a6bff" opacity="0.54"/><circle cx="391.4" cy="282.6" r="3.8" fill="#7a6bff" opacity="0.50"/><circle cx="199.8" cy="199.0" r="7.0" fill="#ff3399" opacity="0.94"/><circle cx="203.5" cy="312.5" r="2.6" fill="#7a6bff" opacity="0.33"/><circle cx="389.6" cy="226.9" r="5.9" fill="#ff3399" opacity="0.79"/><circle cx="111.4" cy="237.9" r="5.4" fill="#ff3399" opacity="0.73"/><circle cx="335.6" cy="305.5" r="2.8" fill="#7a6bff" opacity="0.36"/><circle cx="283.2" cy="193.0" r="7.1" fill="#ff3399" opacity="0.96"/><circle cx="136.3" cy="289.4" r="3.3" fill="#7a6bff" opacity="0.44"/><circle cx="405.3" cy="257.8" r="4.5" fill="#7a6bff" opacity="0.60"/><circle cx="155.5" cy="206.1" r="6.5" fill="#ff3399" opacity="0.88"/><circle cx="254.9" cy="312.1" r="2.4" fill="#7a6bff" opacity="0.31"/><circle cx="358.0" cy="205.7" r="6.5" fill="#ff3399" opacity="0.87"/><circle cx="106.6" cy="254.8" r="4.6" fill="#7a6bff" opacity="0.61"/><circle cx="374.2" cy="286.9" r="3.3" fill="#7a6bff" opacity="0.43"/><circle cx="231.0" cy="188.7" r="7.1" fill="#ff3399" opacity="0.96"/><circle cx="174.7" cy="299.7" r="2.8" fill="#7a6bff" opacity="0.36"/><circle cx="400.9" cy="232.4" r="5.3" fill="#ff3399" opacity="0.71"/><circle cx="123.7" cy="218.8" r="5.8" fill="#ff3399" opacity="0.78"/><circle cx="306.3" cy="304.3" r="2.5" fill="#7a6bff" opacity="0.32"/><circle cx="314.1" cy="190.0" r="6.9" fill="#ff3399" opacity="0.93"/><circle cx="120.1" cy="271.2" r="3.7" fill="#7a6bff" opacity="0.49"/><circle cx="398.4" cy="263.9" r="4.0" fill="#7a6bff" opacity="0.53"/><circle cx="182.0" cy="191.7" r="6.8" fill="#ff3399" opacity="0.91"/><circle cx="222.9" cy="303.6" r="2.4" fill="#7a6bff" opacity="0.31"/><circle cx="378.8" cy="208.9" r="6.0" fill="#ff3399" opacity="0.81"/><circle cx="108.0" cy="234.8" r="5.0" fill="#ff3399" opacity="0.67"/><circle cx="351.4" cy="289.4" r="2.9" fill="#7a6bff" opacity="0.37"/><circle cx="263.2" cy="181.3" r="7.1" fill="#ff3399" opacity="0.95"/><circle cx="150.0" cy="284.3" r="3.0" fill="#7a6bff" opacity="0.39"/><circle cx="405.0" cy="238.6" r="4.8" fill="#7a6bff" opacity="0.64"/><circle cx="142.3" cy="201.2" r="6.2" fill="#ff3399" opacity="0.83"/><circle cx="274.8" cy="300.2" r="2.3" fill="#7a6bff" opacity="0.30"/><circle cx="341.9" cy="189.8" r="6.6" fill="#ff3399" opacity="0.89"/><circle cx="110.6" cy="251.8" r="4.2" fill="#7a6bff" opacity="0.55"/><circle cx="384.5" cy="268.9" r="3.5" fill="#7a6bff" opacity="0.46"/><circle cx="211.8" cy="179.9" r="6.9" fill="#ff3399" opacity="0.93"/><circle cx="192.7" cy="292.1" r="2.5" fill="#7a6bff" opacity="0.33"/><circle cx="393.4" cy="213.8" r="5.5" fill="#ff3399" opacity="0.74"/><circle cx="116.7" cy="215.3" r="5.5" fill="#ff3399" opacity="0.73"/><circle cx="324.1" cy="289.5" r="2.6" fill="#7a6bff" opacity="0.33"/><circle cx="294.8" cy="176.8" r="6.9" fill="#ff3399" opacity="0.93"/><circle cx="130.8" cy="267.0" r="3.4" fill="#7a6bff" opacity="0.44"/><circle cx="401.8" cy="244.8" r="4.2" fill="#7a6bff" opacity="0.56"/><circle cx="166.2" cy="185.6" r="6.5" fill="#ff3399" opacity="0.87"/><circle cx="242.7" cy="293.1" r="2.3" fill="#7a6bff" opacity="0.29"/><circle cx="365.2" cy="192.0" r="6.2" fill="#ff3399" opacity="0.83"/><circle cx="108.3" cy="231.9" r="4.6" fill="#7a6bff" opacity="0.62"/><circle cx="364.6" cy="272.3" r="3.0" fill="#7a6bff" opacity="0.39"/><circle cx="243.5" cy="171.1" r="6.9" fill="#ff3399" opacity="0.94"/><circle cx="166.1" cy="278.1" r="2.8" fill="#7a6bff" opacity="0.36"/><circle cx="401.1" cy="219.6" r="5.0" fill="#ff3399" opacity="0.67"/><circle cx="132.0" cy="197.1" r="5.8" fill="#ff3399" opacity="0.79"/><circle cx="293.8" cy="286.8" r="2.3" fill="#7a6bff" opacity="0.30"/><circle cx="324.0" cy="175.2" r="6.6" fill="#ff3399" opacity="0.90"/><circle cx="118.0" cy="248.2" r="3.8" fill="#7a6bff" opacity="0.50"/><circle cx="391.4" cy="250.2" r="3.7" fill="#7a6bff" opacity="0.49"/><circle cx="194.2" cy="172.6" r="6.7" fill="#ff3399" opacity="0.90"/><circle cx="211.8" cy="283.2" r="2.4" fill="#7a6bff" opacity="0.30"/><circle cx="382.7" cy="195.9" r="5.7" fill="#ff3399" opacity="0.77"/><circle cx="113.3" cy="212.2" r="5.1" fill="#ff3399" opacity="0.68"/><circle cx="339.7" cy="273.4" r="2.7" fill="#7a6bff" opacity="0.34"/><circle cx="275.1" cy="165.2" r="6.8" fill="#ff3399" opacity="0.92"/><circle cx="144.3" cy="261.8" r="3.1" fill="#7a6bff" opacity="0.40"/><circle cx="401.5" cy="225.7" r="4.4" fill="#7a6bff" opacity="0.59"/><circle cx="153.1" cy="180.6" r="6.2" fill="#ff3399" opacity="0.83"/><circle cx="262.4" cy="281.2" r="2.2" fill="#7a6bff" opacity="0.29"/><circle cx="349.3" cy="176.1" r="6.3" fill="#ff3399" opacity="0.85"/><circle cx="112.2" cy="228.7" r="4.2" fill="#7a6bff" opacity="0.56"/><circle cx="374.7" cy="254.3" r="3.2" fill="#7a6bff" opacity="0.42"/><circle cx="224.6" cy="162.3" r="6.8" fill="#ff3399" opacity="0.91"/><circle cx="183.8" cy="270.5" r="2.5" fill="#7a6bff" opacity="0.33"/><circle cx="393.7" cy="201.1" r="5.2" fill="#ff3399" opacity="0.70"/><circle cx="125.2" cy="193.5" r="5.5" fill="#ff3399" opacity="0.73"/><circle cx="311.3" cy="272.0" r="2.4" fill="#7a6bff" opacity="0.31"/><circle cx="305.0" cy="162.1" r="6.6" fill="#ff3399" opacity="0.89"/><circle cx="128.6" cy="243.9" r="3.4" fill="#7a6bff" opacity="0.45"/><circle cx="394.7" cy="231.3" r="3.9" fill="#7a6bff" opacity="0.52"/><circle cx="178.8" cy="166.5" r="6.4" fill="#ff3399" opacity="0.86"/><circle cx="231.4" cy="272.7" r="2.3" fill="#7a6bff" opacity="0.29"/><circle cx="369.3" cy="179.1" r="5.9" fill="#ff3399" opacity="0.79"/><circle cx="113.7" cy="209.2" r="4.7" fill="#7a6bff" opacity="0.62"/><circle cx="352.6" cy="256.4" r="2.8" fill="#7a6bff" opacity="0.36"/><circle cx="255.6" cy="155.0" r="6.7" fill="#ff3399" opacity="0.91"/><circle cx="160.2" cy="255.4" r="2.8" fill="#7a6bff" opacity="0.36"/><circle cx="397.5" cy="206.8" r="4.7" fill="#7a6bff" opacity="0.62"/><circle cx="143.2" cy="176.4" r="5.8" fill="#ff3399" opacity="0.78"/><circle cx="281.0" cy="267.8" r="2.2" fill="#7a6bff" opacity="0.29"/><circle cx="331.6" cy="161.7" r="6.3" fill="#ff3399" opacity="0.85"/><circle cx="119.7" cy="225.0" r="3.9" fill="#7a6bff" opacity="0.51"/><circle cx="381.3" cy="235.8" r="3.4" fill="#7a6bff" opacity="0.45"/><circle cx="207.4" cy="155.0" r="6.5" fill="#ff3399" opacity="0.88"/><circle cx="202.7" cy="261.4" r="2.4" fill="#7a6bff" opacity="0.30"/><circle cx="383.0" cy="183.4" r="5.4" fill="#ff3399" opacity="0.72"/><circle cx="122.1" cy="190.3" r="5.1" fill="#ff3399" opacity="0.68"/><circle cx="326.5" cy="256.1" r="2.5" fill="#7a6bff" opacity="0.32"/><circle cx="285.7" cy="150.5" r="6.6" fill="#ff3399" opacity="0.89"/><circle cx="142.1" cy="238.5" r="3.1" fill="#7a6bff" opacity="0.41"/><circle cx="394.2" cy="212.3" r="4.1" fill="#7a6bff" opacity="0.55"/><circle cx="166.1" cy="161.4" r="6.1" fill="#ff3399" opacity="0.82"/><circle cx="250.6" cy="260.7" r="2.2" fill="#7a6bff" opacity="0.28"/><circle cx="353.5" cy="163.4" r="6.0" fill="#ff3399" opacity="0.80"/><circle cx="117.8" cy="205.8" r="4.3" fill="#7a6bff" opacity="0.57"/><circle cx="362.2" cy="238.5" r="3.0" fill="#7a6bff" opacity="0.39"/><circle cx="237.3" cy="146.3" r="6.5" fill="#ff3399" opacity="0.88"/><circle cx="177.7" cy="247.6" r="2.6" fill="#7a6bff" opacity="0.33"/><circle cx="389.9" cy="188.5" r="4.9" fill="#ff3399" opacity="0.65"/><circle cx="136.9" cy="172.8" r="5.4" fill="#ff3399" opacity="0.73"/><circle cx="297.9" cy="253.0" r="2.3" fill="#7a6bff" opacity="0.29"/><circle cx="313.0" cy="148.8" r="6.3" fill="#ff3399" opacity="0.85"/><circle cx="130.4" cy="220.4" r="3.5" fill="#7a6bff" opacity="0.46"/><circle cx="384.1" cy="217.0" r="3.6" fill="#7a6bff" opacity="0.48"/><circle cx="192.5" cy="148.8" r="6.2" fill="#ff3399" opacity="0.84"/><circle cx="221.8" cy="250.7" r="2.3" fill="#7a6bff" opacity="0.29"/><circle cx="369.6" cy="166.8" r="5.5" fill="#ff3399" opacity="0.74"/><circle cx="122.9" cy="187.0" r="4.7" fill="#7a6bff" opacity="0.63"/><circle cx="338.7" cy="239.0" r="2.7" fill="#7a6bff" opacity="0.34"/><circle cx="266.8" cy="140.5" r="6.4" fill="#ff3399" opacity="0.87"/><circle cx="157.8" cy="231.9" r="2.9" fill="#7a6bff" opacity="0.37"/><circle cx="389.8" cy="193.7" r="4.3" fill="#7a6bff" opacity="0.58"/><circle cx="156.9" cy="157.1" r="5.7" fill="#ff3399" opacity="0.77"/><circle cx="268.6" cy="247.1" r="2.2" fill="#7a6bff" opacity="0.28"/><circle cx="336.1" cy="149.3" r="6.0" fill="#ff3399" opacity="0.80"/><circle cx="125.6" cy="201.8" r="3.9" fill="#7a6bff" opacity="0.52"/><circle cx="368.2" cy="220.1" r="3.2" fill="#7a6bff" opacity="0.42"/><circle cx="220.8" cy="139.1" r="6.3" fill="#ff3399" opacity="0.85"/><circle cx="196.2" cy="238.2" r="2.4" fill="#7a6bff" opacity="0.31"/><circle cx="379.1" cy="171.1" r="5.0" fill="#ff3399" opacity="0.67"/><circle cx="134.5" cy="169.3" r="5.1" fill="#ff3399" opacity="0.68"/><circle cx="312.3" cy="236.9" r="2.4" fill="#7a6bff" opacity="0.31"/><circle cx="294.1" cy="137.5" r="6.2" fill="#ff3399" opacity="0.84"/><circle cx="143.9" cy="214.7" r="3.2" fill="#7a6bff" opacity="0.42"/><circle cx="382.9" cy="198.2" r="3.8" fill="#7a6bff" opacity="0.51"/><circle cx="180.8" cy="143.8" r="5.9" fill="#ff3399" opacity="0.80"/><circle cx="240.4" cy="238.4" r="2.2" fill="#7a6bff" opacity="0.28"/><circle cx="353.8" cy="151.6" r="5.6" fill="#ff3399" opacity="0.75"/><circle cx="127.7" cy="183.4" r="4.3" fill="#7a6bff" opacity="0.57"/><circle cx="347.4" cy="221.2" r="2.8" fill="#7a6bff" opacity="0.37"/><circle cx="249.2" cy="132.1" r="6.3" fill="#ff3399" opacity="0.84"/><circle cx="175.2" cy="223.7" r="2.7" fill="#7a6bff" opacity="0.35"/><circle cx="381.7" cy="175.8" r="4.5" fill="#7a6bff" opacity="0.60"/><circle cx="151.6" cy="153.3" r="5.4" fill="#ff3399" opacity="0.72"/><circle cx="284.6" cy="232.1" r="2.3" fill="#7a6bff" opacity="0.29"/><circle cx="317.8" cy="136.8" r="6.0" fill="#ff3399" opacity="0.80"/><circle cx="136.8" cy="196.8" r="3.6" fill="#7a6bff" opacity="0.47"/><circle cx="369.9" cy="201.5" r="3.4" fill="#7a6bff" opacity="0.45"/><circle cx="207.0" cy="133.1" r="6.0" fill="#ff3399" opacity="0.81"/><circle cx="214.8" cy="227.2" r="2.4" fill="#7a6bff" opacity="0.30"/><circle cx="365.3" cy="155.0" r="5.1" fill="#ff3399" opacity="0.69"/><circle cx="136.3" cy="165.8" r="4.7" fill="#7a6bff" opacity="0.62"/><circle cx="323.4" cy="219.8" r="2.6" fill="#7a6bff" opacity="0.33"/><circle cx="275.9" cy="127.9" r="6.1" fill="#ff3399" opacity="0.82"/><circle cx="159.8" cy="207.5" r="3.0" fill="#7a6bff" opacity="0.39"/><circle cx="377.6" cy="179.9" r="4.0" fill="#7a6bff" opacity="0.53"/><circle cx="172.8" cy="139.6" r="5.6" fill="#ff3399" opacity="0.75"/><circle cx="257.5" cy="224.5" r="2.3" fill="#7a6bff" opacity="0.29"/><circle cx="336.4" cy="137.9" r="5.6" fill="#ff3399" opacity="0.75"/><circle cx="136.4" cy="179.0" r="4.0" fill="#7a6bff" opacity="0.53"/><circle cx="351.9" cy="202.8" r="3.0" fill="#7a6bff" opacity="0.39"/><circle cx="233.8" cy="125.2" r="6.0" fill="#ff3399" opacity="0.81"/><circle cx="193.4" cy="213.7" r="2.6" fill="#7a6bff" opacity="0.33"/><circle cx="370.0" cy="158.9" r="4.7" fill="#7a6bff" opacity="0.62"/><circle cx="150.6" cy="149.8" r="5.0" fill="#ff3399" opacity="0.67"/><circle cx="297.7" cy="215.7" r="2.4" fill="#7a6bff" opacity="0.31"/><circle cx="299.4" cy="126.0" r="5.9" fill="#ff3399" opacity="0.79"/><circle cx="151.0" cy="190.6" r="3.3" fill="#7a6bff" opacity="0.44"/><circle cx="367.3" cy="183.0" r="3.6" fill="#7a6bff" opacity="0.47"/><circle cx="196.8" cy="128.3" r="5.7" fill="#ff3399" opacity="0.76"/><circle cx="232.6" cy="214.3" r="2.3" fill="#7a6bff" opacity="0.30"/><circle cx="349.0" cy="140.4" r="5.2" fill="#ff3399" opacity="0.69"/><circle cx="142.5" cy="161.8" r="4.3" fill="#7a6bff" opacity="0.57"/><circle cx="330.4" cy="201.8" r="2.7" fill="#7a6bff" opacity="0.36"/><circle cx="259.3" cy="120.0" r="5.9" fill="#ff3399" opacity="0.79"/><circle cx="177.5" cy="198.6" r="2.8" fill="#7a6bff" opacity="0.37"/><circle cx="368.0" cy="162.5" r="4.2" fill="#7a6bff" opacity="0.56"/><circle cx="169.4" cy="135.8" r="5.2" fill="#ff3399" opacity="0.70"/><circle cx="272.2" cy="208.9" r="2.3" fill="#7a6bff" opacity="0.30"/><circle cx="318.1" cy="126.2" r="5.5" fill="#ff3399" opacity="0.74"/><circle cx="148.8" cy="173.4" r="3.7" fill="#7a6bff" opacity="0.48"/><circle cx="351.8" cy="184.2" r="3.2" fill="#7a6bff" opacity="0.42"/><circle cx="221.6" cy="119.8" r="5.7" fill="#ff3399" opacity="0.77"/><circle cx="211.7" cy="201.8" r="2.5" fill="#7a6bff" opacity="0.32"/><circle cx="355.1" cy="143.4" r="4.7" fill="#7a6bff" opacity="0.63"/><circle cx="154.5" cy="146.1" r="4.6" fill="#7a6bff" opacity="0.61"/><circle cx="306.9" cy="198.2" r="2.6" fill="#7a6bff" opacity="0.33"/><circle cx="281.8" cy="117.3" r="5.7" fill="#ff3399" opacity="0.76"/><circle cx="167.8" cy="182.6" r="3.1" fill="#7a6bff" opacity="0.41"/><circle cx="359.8" cy="165.0" r="3.8" fill="#7a6bff" opacity="0.50"/><circle cx="191.0" cy="124.4" r="5.3" fill="#ff3399" opacity="0.71"/><circle cx="248.7" cy="199.5" r="2.4" fill="#7a6bff" opacity="0.31"/><circle cx="331.0" cy="127.7" r="5.2" fill="#ff3399" opacity="0.69"/><circle cx="153.3" cy="156.9" r="4.0" fill="#7a6bff" opacity="0.53"/><circle cx="332.4" cy="183.2" r="3.0" fill="#7a6bff" opacity="0.38"/><circle cx="245.4" cy="114.0" r="5.6" fill="#ff3399" opacity="0.75"/><circle cx="196.0" cy="187.6" r="2.7" fill="#7a6bff" opacity="0.35"/><circle cx="354.3" cy="146.3" r="4.3" fill="#7a6bff" opacity="0.57"/><circle cx="171.1" cy="132.3" r="4.8" fill="#ff3399" opacity="0.64"/><circle cx="283.3" cy="191.8" r="2.5" fill="#7a6bff" opacity="0.32"/><circle cx="299.8" cy="116.6" r="5.4" fill="#ff3399" opacity="0.72"/><circle cx="164.9" cy="166.2" r="3.4" fill="#7a6bff" opacity="0.45"/><circle cx="346.2" cy="165.9" r="3.4" fill="#7a6bff" opacity="0.45"/><circle cx="213.7" cy="115.7" r="5.4" fill="#ff3399" opacity="0.72"/><circle cx="229.0" cy="187.7" r="2.5" fill="#7a6bff" opacity="0.33"/><circle cx="337.2" cy="129.9" r="4.8" fill="#7a6bff" opacity="0.63"/><circle cx="163.8" cy="141.7" r="4.3" fill="#7a6bff" opacity="0.57"/><circle cx="311.0" cy="179.6" r="2.8" fill="#7a6bff" opacity="0.36"/><circle cx="266.3" cy="110.7" r="5.4" fill="#ff3399" opacity="0.73"/><circle cx="186.8" cy="172.4" r="3.0" fill="#7a6bff" opacity="0.39"/><circle cx="347.1" cy="148.1" r="3.9" fill="#7a6bff" opacity="0.52"/><circle cx="190.9" cy="121.1" r="4.9" fill="#ff3399" opacity="0.66"/><circle cx="261.7" cy="182.6" r="2.5" fill="#7a6bff" opacity="0.33"/><circle cx="311.7" cy="117.4" r="5.0" fill="#ff3399" opacity="0.67"/><circle cx="169.0" cy="150.5" r="3.7" fill="#7a6bff" opacity="0.49"/><circle cx="328.5" cy="164.4" r="3.2" fill="#7a6bff" opacity="0.41"/><circle cx="235.6" cy="109.8" r="5.3" fill="#ff3399" opacity="0.70"/><circle cx="214.7" cy="174.1" r="2.7" fill="#7a6bff" opacity="0.36"/><circle cx="336.3" cy="131.9" r="4.4" fill="#7a6bff" opacity="0.58"/><circle cx="179.2" cy="128.7" r="4.5" fill="#7a6bff" opacity="0.59"/><circle cx="289.4" cy="173.0" r="2.7" fill="#7a6bff" opacity="0.35"/><circle cx="282.5" cy="109.7" r="5.1" fill="#ff3399" opacity="0.69"/><circle cx="184.7" cy="156.8" r="3.3" fill="#7a6bff" opacity="0.43"/><circle cx="334.1" cy="148.2" r="3.6" fill="#7a6bff" opacity="0.47"/><circle cx="211.9" cy="112.9" r="4.9" fill="#ff3399" opacity="0.66"/><circle cx="244.0" cy="171.0" r="2.7" fill="#7a6bff" opacity="0.34"/><circle cx="316.5" cy="119.0" r="4.7" fill="#7a6bff" opacity="0.62"/><circle cx="179.5" cy="136.2" r="4.0" fill="#7a6bff" opacity="0.52"/><circle cx="308.3" cy="160.0" r="3.0" fill="#7a6bff" opacity="0.39"/><circle cx="254.4" cy="106.8" r="5.1" fill="#ff3399" opacity="0.68"/><circle cx="207.5" cy="159.3" r="3.0" fill="#7a6bff" opacity="0.39"/><circle cx="328.2" cy="132.9" r="4.0" fill="#7a6bff" opacity="0.53"/><circle cx="198.3" cy="118.4" r="4.5" fill="#7a6bff" opacity="0.60"/><circle cx="269.8" cy="163.3" r="2.8" fill="#7a6bff" opacity="0.36"/><circle cx="292.0" cy="110.4" r="4.8" fill="#7a6bff" opacity="0.64"/><circle cx="190.5" cy="141.9" r="3.6" fill="#7a6bff" opacity="0.47"/><circle cx="316.2" cy="145.6" r="3.4" fill="#7a6bff" opacity="0.44"/><circle cx="232.0" cy="107.9" r="4.8" fill="#ff3399" opacity="0.64"/><circle cx="232.6" cy="157.1" r="2.9" fill="#7a6bff" opacity="0.38"/><circle cx="313.0" cy="120.4" r="4.3" fill="#7a6bff" opacity="0.57"/><circle cx="196.1" cy="124.3" r="4.1" fill="#7a6bff" opacity="0.54"/><circle cx="287.8" cy="152.1" r="3.0" fill="#7a6bff" opacity="0.39"/><circle cx="267.5" cy="106.5" r="4.8" fill="#7a6bff" opacity="0.63"/><circle cx="209.0" cy="144.0" r="3.3" fill="#7a6bff" opacity="0.43"/><circle cx="312.7" cy="131.8" r="3.7" fill="#7a6bff" opacity="0.49"/><circle cx="219.3" cy="111.8" r="4.5" fill="#7a6bff" opacity="0.60"/><circle cx="255.0" cy="150.3" r="3.0" fill="#7a6bff" opacity="0.38"/><circle cx="292.3" cy="112.2" r="4.4" fill="#7a6bff" opacity="0.59"/><circle cx="205.1" cy="128.6" r="3.7" fill="#7a6bff" opacity="0.49"/><circle cx="294.6" cy="139.2" r="3.3" fill="#7a6bff" opacity="0.43"/><circle cx="248.6" cy="106.9" r="4.5" fill="#7a6bff" opacity="0.60"/><circle cx="230.6" cy="141.2" r="3.2" fill="#7a6bff" opacity="0.42"/><circle cx="298.8" cy="120.8" r="4.0" fill="#7a6bff" opacity="0.52"/><circle cx="218.9" cy="116.3" r="4.1" fill="#7a6bff" opacity="0.54"/><circle cx="269.0" cy="139.5" r="3.2" fill="#7a6bff" opacity="0.42"/><circle cx="271.2" cy="109.3" r="4.3" fill="#7a6bff" opacity="0.57"/><circle cx="223.3" cy="128.9" r="3.5" fill="#7a6bff" opacity="0.47"/><circle cx="287.6" cy="126.8" r="3.6" fill="#7a6bff" opacity="0.47"/><circle cx="241.1" cy="111.0" r="4.2" fill="#7a6bff" opacity="0.56"/><circle cx="249.5" cy="132.4" r="3.3" fill="#7a6bff" opacity="0.44"/><circle cx="276.3" cy="115.3" r="4.0" fill="#7a6bff" opacity="0.53"/><circle cx="235.5" cy="119.1" r="3.8" fill="#7a6bff" opacity="0.50"/><circle cx="266.1" cy="124.9" r="3.5" fill="#7a6bff" opacity="0.47"/><circle cx="256.6" cy="115.5" r="3.9" fill="#7a6bff" opacity="0.51"/></svg>